<?xml version="1.0" encoding="UTF-8"?>
<svg width="280" height="100" version="1.1" viewBox="0 0 74.083 26.458" xmlns="http://www.w3.org/2000/svg">
	<g transform="translate(-18.391 -18.776)">
		<g stroke-width="1.6218">
			<path d="m31.355 44.188c0.03693-0.69224-0.01977-1.6014 0-2.6458l-5.1875 0.0894-1.7183 2.605h-4.059l9.1467-13.225 5.7868-0.0524v13.229zm0.04179-5.3982c0.03567-1.2752 0.06057-2.5504 0.07468-3.8256l0.02542-1.1841c-0.76329 1.1052-1.9017 2.775-3.4152 5.0096z" style="white-space:pre"/>
			<path d="m49.574 35.419c0 1.0566-0.23178 1.9492-0.69536 2.6779-0.45279 0.72867-1.2344 1.257-2.3448 1.5849 0.12937 0.19431 0.22101 0.34611 0.27491 0.45542l2.6197 4.0988h-4.3986c-0.47436-0.99585-1.2236-2.4046-2.2478-4.2263h-2.3772v4.2263l-3.7583-0.0486c0.0028-4.0186-0.0063-9.2162 0-13.229l3.9688-1e-5h-1.3229 3.9688c2.6458 0 4.1566 0.4653 5.0191 1.2547 0.86246 0.78941 1.2937 1.8581 1.2937 3.2062zm-9.169-0.89262v2.0767h2.1831c0.91637 0 1.6063-0.0303 2.0699-0.091 0.47435-0.0729 0.80317-0.18217 0.98644-0.32791 0.18327-0.14573 0.27491-0.35826 0.27491-0.63758 0-0.26717-0.08625-0.47363-0.25874-0.61936-0.17249-0.14574-0.49591-0.24897-0.97027-0.3097-0.47435-0.0607-1.1751-0.0911-2.1023-0.0911z" style="white-space:pre"/>
			<path d="m81.097 44.188q-3.6547 0-5.385-1.7488-1.7303-1.7488-1.7303-4.9914 0-3.2608 1.7303-5.1554 1.7303-1.8945 5.385-1.8945 5.1101 0 6.8404 3.953-1.4554 0.56473-3.4121 1.6942-0.46896-1.0201-1.4877-1.512-1.0026-0.49186-2.0537-0.49186-1.5524 0-2.3125 0.92906-0.76004 0.91084-0.76004 2.2589 0 1.4574 0.80856 2.3864 0.82473 0.91083 2.5065 0.91083 1.3422 0 2.1346-0.49185 0.79238-0.51007 1.1643-1.6031 1.326 0.80155 3.3959 1.8035-0.80856 2.2042-2.7006 3.0786-1.892 0.87439-4.1236 0.87439z" style="white-space:pre"/>
		</g>
		<g transform="translate(-5.6863 -111.92)" stroke-width="1.6218">
			<path d="m62.135 156.1c0.03693-0.69224-0.01977-1.6014 0-2.6458l-5.1875 0.0894-1.7183 2.605h-4.059l9.1467-13.225 5.7868-0.0524v13.229zm0.04179-5.3982c0.03567-1.2752 0.06057-2.5504 0.07468-3.8256l0.02542-1.1841c-0.76329 1.1052-1.9017 2.775-3.4152 5.0096z" style="white-space:pre"/>
			<path d="m70.942 156.1c-0.03693-0.69224 0.01977-1.6014 0-2.6458l5.1875 0.0894 1.7183 2.605h4.059l-9.1467-13.225-5.7868-0.0524v13.229zm-0.04179-5.3982c-0.03567-1.2752-0.06057-2.5504-0.07468-3.8256l-0.02542-1.1841c0.76329 1.1052 1.9017 2.775 3.4152 5.0096z" style="white-space:pre"/>
		</g>
		<g transform="matrix(.81406 0 0 .81406 16.024 -1.0247)">
			<g transform="matrix(.6608 0 0 .73244 19.194 11.176)">
				<path d="m52.867 27.978a4.9678 5.3176 0 0 1-4.9678 5.3176 4.9678 5.3176 0 0 1-4.9678-5.3176 4.9678 5.3176 0 0 1 4.9678-5.3176 4.9678 5.3176 0 0 1 4.9678 5.3176z"/>
				<path d="m65.648 27.978a4.9678 5.3176 0 0 1-4.9678 5.3176 4.9678 5.3176 0 0 1-4.9678-5.3176 4.9678 5.3176 0 0 1 4.9678-5.3176 4.9678 5.3176 0 0 1 4.9678 5.3176z"/>
			</g>
			<g transform="matrix(.6608 0 0 .73244 18.882 11.705)">
				<path d="m73.705 23.877a3.0786 3.2954 0 0 1-3.0786 3.2954 3.0786 3.2954 0 0 1-3.0786-3.2954 3.0786 3.2954 0 0 1 3.0786-3.2954 3.0786 3.2954 0 0 1 3.0786 3.2954z"/>
				<path d="m41.975 23.877a3.0786 3.2954 0 0 1-3.0786 3.2954 3.0786 3.2954 0 0 1-3.0786-3.2954 3.0786 3.2954 0 0 1 3.0786-3.2954 3.0786 3.2954 0 0 1 3.0786 3.2954z"/>
			</g>
		</g>
	</g>
</svg>
